<?xml version="1.0" standalone="no"?>
<!DOCTYPE svg PUBLIC "-//W3C//DTD SVG 20010904//EN"
 "http://www.w3.org/TR/2001/REC-SVG-20010904/DTD/svg10.dtd">
<svg version="1.0" xmlns="http://www.w3.org/2000/svg"
 width="222.000000pt" height="222.000000pt" viewBox="0 0 222.000000 222.000000"
 preserveAspectRatio="xMidYMid meet">
<metadata>
Created by potrace 1.14, written by Peter Selinger 2001-2017
</metadata>
<g transform="translate(0.000000,222.000000) scale(0.100000,-0.100000)"
fill="#000000" stroke="none">
<path d="M926 2105 c-33 -14 -67 -25 -75 -26 -9 0 -3 -5 12 -11 l28 -10 -36
-30 c-39 -34 -99 -127 -110 -170 -6 -24 -12 -28 -41 -28 -31 0 -34 -3 -34 -30
0 -17 -8 -57 -17 -91 l-17 -60 -28 46 c-16 26 -48 66 -71 89 -38 37 -47 42
-79 38 -27 -3 -39 1 -49 15 -25 35 -113 11 -140 -39 -7 -12 -17 -17 -28 -13
-28 9 -93 -99 -107 -179 -3 -17 -14 -40 -24 -51 -37 -40 -53 -100 -47 -183 3
-42 9 -87 12 -100 6 -17 4 -22 -6 -20 -39 9 -8 -125 45 -192 20 -25 60 -63 90
-84 l55 -40 -28 -20 c-79 -59 -116 -138 -106 -231 11 -102 22 -132 57 -152 22
-13 41 -39 64 -88 l32 -70 7 33 c9 37 6 36 52 17 42 -18 46 -18 38 -5 -3 6 -4
10 -1 10 2 0 31 -48 64 -107 64 -115 123 -186 167 -203 33 -13 112 -13 117 -1
3 9 114 36 193 48 17 2 36 6 44 9 9 3 11 -1 6 -13 -3 -10 -7 -22 -8 -27 -3
-12 50 -17 230 -19 157 -2 162 -1 186 21 22 21 29 34 42 85 2 4 3 14 4 24 1
13 5 12 21 -7 l20 -23 11 29 c25 68 30 154 15 256 l-8 48 34 -12 c18 -6 44
-19 57 -30 50 -39 119 -44 196 -16 53 20 149 94 200 155 27 32 52 60 55 63 10
10 60 86 60 92 0 3 -9 8 -21 11 l-21 6 20 38 c33 64 58 145 68 225 2 24 7 53
10 66 3 15 0 22 -10 22 -9 0 -15 15 -18 46 -2 25 -1 47 1 50 2 2 27 4 54 4
l50 0 -39 28 c-67 48 -114 65 -181 66 l-63 1 6 29 c6 27 5 28 -27 21 -44 -10
-98 -37 -137 -70 -16 -14 -38 -25 -48 -25 -16 0 -16 2 3 23 60 63 93 174 55
183 -15 4 -17 18 -18 102 0 67 -5 108 -16 133 -12 28 -13 40 -5 49 24 23 -73
83 -161 100 -71 13 -219 -28 -209 -58 3 -11 -64 -74 -71 -67 -4 3 -7 27 -8 53
-1 26 -7 66 -13 89 -10 37 -14 41 -37 37 -20 -4 -28 2 -42 27 -24 46 -81 108
-113 125 -40 20 -96 17 -163 -11z m-169 -770 c6 -20 -22 -45 -52 -48 -28 -2
-30 0 -27 33 4 60 8 64 44 43 17 -10 33 -23 35 -28z m344 33 c0 -1 4 -19 8
-39 8 -35 8 -35 -28 -37 -20 -1 -48 -7 -63 -13 -14 -6 -35 -9 -45 -7 -14 2 -8
10 25 33 23 17 54 40 68 53 22 20 37 24 35 10z m79 -210 c0 -5 -9 -4 -20 2
-11 6 -20 12 -20 14 0 2 9 2 20 -1 11 -3 20 -9 20 -15z m36 -29 c18 -20 18
-20 -11 -13 -42 10 -49 15 -34 25 20 12 24 11 45 -12z"/>
</g>
</svg>
